fd_1_states
version=1
nRows=43
nColumns=17
inDegrees=yes

# SIMM Motion File Header:
name fd_1_states
datacolumns 17
datarows 43
otherdata 1
range 0.320836 0.351484
endheader
time	/jointset/r_shoulder/r_shoulder_elev/value	/jointset/r_shoulder/r_shoulder_elev/speed	/jointset/r_elbow/r_elbow_flex/value	/jointset/r_elbow/r_elbow_flex/speed	/forceset/TRIlong/activation	/forceset/TRIlong/fiber_length	/forceset/TRIlat/activation	/forceset/TRIlat/fiber_length	/forceset/TRImed/activation	/forceset/TRImed/fiber_length	/forceset/BIClong/activation	/forceset/BIClong/fiber_length	/forceset/BICshort/activation	/forceset/BICshort/fiber_length	/forceset/BRA/activation	/forceset/BRA/fiber_length
      0.320836	      0.034462	      0.086648	     89.737369	    279.289002	      0.021935	      0.169521	      0.155413	      0.102966	      0.153162	      0.098022	      0.799697	      0.096208	      0.215392	      0.097095	      0.023471	      0.068891
      0.322694	      0.034610	      0.074695	     90.256387	    279.336515	      0.021888	      0.169697	      0.158022	      0.103134	      0.155464	      0.098191	      0.805223	      0.095753	      0.217680	      0.096648	      0.023435	      0.068686
      0.323332	      0.034657	      0.073541	     90.434486	    279.349232	      0.021872	      0.169752	      0.158773	      0.103192	      0.156127	      0.098250	      0.806979	      0.095596	      0.218352	      0.096494	      0.023423	      0.068616
      0.324274	      0.034726	      0.072634	     90.697725	    279.361566	      0.021849	      0.169844	      0.159770	      0.103278	      0.157005	      0.098336	      0.809452	      0.095365	      0.219253	      0.096267	      0.023405	      0.068511
      0.324995	      0.034779	      0.073913	     90.899181	    279.372843	      0.021831	      0.169906	      0.160450	      0.103344	      0.157605	      0.098403	      0.811252	      0.095189	      0.219876	      0.096092	      0.023392	      0.068431
      0.325716	      0.034832	      0.074269	     91.100644	    279.382303	      0.021814	      0.169977	      0.161066	      0.103410	      0.158147	      0.098469	      0.812975	      0.095012	      0.220447	      0.095918	      0.023378	      0.068351
      0.326567	      0.034896	      0.075987	     91.338273	    279.399047	      0.021793	      0.170051	      0.161719	      0.103489	      0.158722	      0.098548	      0.814914	      0.094804	      0.221059	      0.095713	      0.023363	      0.068257
      0.327417	      0.034961	      0.074896	     91.575917	    279.414301	      0.021773	      0.170172	      0.162301	      0.103568	      0.159234	      0.098628	      0.816756	      0.094596	      0.221610	      0.095507	      0.023347	      0.068162
      0.328268	      0.035029	      0.082757	     91.813586	    279.455627	      0.021753	      0.170212	      0.162819	      0.103647	      0.159690	      0.098707	      0.818506	      0.094388	      0.222108	      0.095302	      0.023332	      0.068068
      0.329118	      0.035099	      0.081506	     92.051282	    279.483648	      0.021733	      0.170289	      0.163280	      0.103727	      0.160095	      0.098787	      0.820171	      0.094181	      0.222557	      0.095097	      0.023317	      0.067973
      0.330009	      0.035170	      0.077970	     92.300303	    279.516278	      0.021713	      0.170383	      0.163714	      0.103811	      0.160478	      0.098871	      0.821833	      0.093964	      0.222984	      0.094882	      0.023301	      0.067873
      0.330607	      0.035217	      0.076886	     92.467360	    279.544593	      0.021737	      0.170428	      0.164317	      0.103866	      0.161124	      0.098927	      0.823520	      0.093818	      0.223641	      0.094738	      0.023291	      0.067806
      0.331204	      0.035262	      0.074639	     92.634431	    279.567569	      0.021765	      0.170484	      0.164935	      0.103922	      0.161795	      0.098982	      0.825264	      0.093672	      0.224325	      0.094593	      0.023281	      0.067740
      0.332801	      0.035379	      0.073916	     93.080850	    279.611649	      0.021826	      0.170625	      0.166361	      0.104069	      0.163342	      0.099129	      0.829630	      0.093282	      0.225925	      0.094207	      0.023254	      0.067561
      0.333386	      0.035422	      0.073288	     93.244362	    279.619098	      0.021844	      0.170695	      0.166811	      0.104124	      0.163830	      0.099183	      0.831127	      0.093139	      0.226439	      0.094065	      0.023244	      0.067495
      0.333971	      0.035465	      0.075490	     93.407879	    279.630003	      0.021860	      0.170740	      0.167227	      0.104178	      0.164280	      0.099237	      0.832574	      0.092996	      0.226917	      0.093923	      0.023234	      0.067429
      0.334795	      0.035528	      0.076647	     93.638477	    279.638938	      0.021880	      0.170816	      0.167760	      0.104255	      0.164858	      0.099314	      0.834530	      0.092795	      0.227536	      0.093723	      0.023221	      0.067336
      0.336080	      0.035628	      0.078607	     93.997744	    279.653532	      0.021906	      0.170931	      0.168482	      0.104376	      0.165638	      0.099434	      0.837395	      0.092480	      0.228387	      0.093412	      0.023200	      0.067192
      0.336721	      0.035678	      0.077839	     94.176993	    279.659199	      0.021916	      0.171002	      0.168798	      0.104436	      0.165980	      0.099494	      0.838745	      0.092324	      0.228765	      0.093256	      0.023190	      0.067119
      0.337362	      0.035728	      0.078606	     94.356247	    279.670368	      0.021926	      0.171053	      0.169089	      0.104496	      0.166294	      0.099555	      0.840045	      0.092167	      0.229115	      0.093101	      0.023179	      0.067047
      0.338146	      0.035789	      0.076686	     94.575565	    279.681733	      0.021936	      0.171130	      0.169412	      0.104570	      0.166642	      0.099628	      0.841571	      0.091976	      0.229509	      0.092911	      0.023167	      0.066959
      0.338880	      0.035845	      0.075142	     94.780768	    279.697048	      0.021944	      0.171193	      0.169685	      0.104639	      0.166937	      0.099697	      0.842937	      0.091796	      0.229845	      0.092734	      0.023156	      0.066876
      0.339614	      0.035899	      0.070992	     94.985983	    279.711205	      0.021951	      0.171269	      0.169932	      0.104709	      0.167204	      0.099767	      0.844246	      0.091617	      0.230153	      0.092556	      0.023144	      0.066792
      0.339975	      0.035924	      0.069658	     95.087039	    279.721247	      0.021955	      0.171298	      0.170046	      0.104743	      0.167326	      0.099801	      0.844870	      0.091529	      0.230295	      0.092469	      0.023139	      0.066752
      0.340270	      0.035944	      0.067816	     95.169549	    279.728818	      0.021949	      0.171324	      0.169963	      0.104771	      0.167238	      0.099829	      0.844323	      0.091458	      0.230918	      0.092397	      0.023128	      0.066718
      0.340565	      0.035964	      0.065541	     95.252061	    279.737025	      0.021941	      0.171351	      0.169845	      0.104799	      0.167114	      0.099857	      0.843576	      0.091386	      0.231620	      0.092326	      0.023116	      0.066685
      0.342040	      0.036048	      0.047214	     95.664668	    279.797734	      0.021903	      0.171484	      0.169268	      0.104942	      0.166503	      0.100000	      0.839988	      0.091031	      0.234773	      0.091966	      0.023055	      0.066517
      0.342630	      0.036073	      0.035255	     95.829852	    279.825774	      0.021888	      0.171550	      0.169042	      0.104999	      0.166263	      0.100057	      0.838619	      0.090890	      0.235885	      0.091821	      0.023031	      0.066450
      0.343220	      0.036090	      0.023440	     95.995055	    279.859603	      0.021874	      0.171598	      0.168819	      0.105057	      0.166026	      0.100114	      0.837287	      0.090749	      0.236922	      0.091676	      0.023007	      0.066383
      0.343996	      0.036101	      0.003657	     96.212128	    279.900310	      0.021854	      0.171673	      0.168529	      0.105132	      0.165719	      0.100189	      0.835590	      0.090565	      0.238176	      0.091485	      0.022976	      0.066295
      0.344744	      0.036096	     -0.016729	     96.421631	    279.938776	      0.021836	      0.171738	      0.168253	      0.105205	      0.165427	      0.100262	      0.834009	      0.090388	      0.239282	      0.091300	      0.022946	      0.066210
      0.345493	      0.036075	     -0.040719	     96.631160	    279.968620	      0.021818	      0.171823	      0.167982	      0.105278	      0.165140	      0.100335	      0.832480	      0.090212	      0.240293	      0.091116	      0.022917	      0.066125
      0.346241	      0.036036	     -0.062474	     96.840711	    279.998934	      0.021800	      0.171877	      0.167714	      0.105351	      0.164856	      0.100407	      0.831003	      0.090036	      0.241218	      0.090931	      0.022888	      0.066039
      0.346990	      0.035980	     -0.089837	     97.050279	    280.011897	      0.021782	      0.171970	      0.167450	      0.105424	      0.164577	      0.100480	      0.829575	      0.089860	      0.242066	      0.090747	      0.022859	      0.065954
      0.347738	      0.035904	     -0.113094	     97.259857	    280.025049	      0.021764	      0.172017	      0.167190	      0.105496	      0.164301	      0.100553	      0.828195	      0.089685	      0.242841	      0.090562	      0.022831	      0.065868
      0.348487	      0.035809	     -0.142852	     97.469437	    280.016005	      0.021747	      0.172101	      0.166934	      0.105569	      0.164030	      0.100625	      0.826860	      0.089509	      0.243552	      0.090378	      0.022803	      0.065783
      0.349235	      0.035692	     -0.169831	     97.679007	    280.001878	      0.021729	      0.172156	      0.166682	      0.105642	      0.163762	      0.100698	      0.825570	      0.089334	      0.244203	      0.090194	      0.022775	      0.065697
      0.349983	      0.035553	     -0.202184	     97.888559	    279.965903	      0.021712	      0.172254	      0.166433	      0.105715	      0.163498	      0.100771	      0.824322	      0.089159	      0.244799	      0.090010	      0.022747	      0.065611
      0.350018	      0.035546	     -0.203025	     97.898367	    279.965244	      0.021711	      0.172255	      0.166455	      0.105718	      0.163520	      0.100774	      0.824345	      0.089151	      0.245019	      0.090001	      0.022746	      0.065607
      0.350053	      0.035539	     -0.203922	     97.908174	    279.964438	      0.021711	      0.172256	      0.166639	      0.105722	      0.163703	      0.100777	      0.824699	      0.089143	      0.245998	      0.089992	      0.022745	      0.065603
      0.350229	      0.035503	     -0.209055	     97.957212	    279.958056	      0.021707	      0.172263	      0.167547	      0.105738	      0.164604	      0.100794	      0.826456	      0.089102	      0.250810	      0.089949	      0.022738	      0.065583
      0.350856	      0.035365	     -0.228983	     98.132922	    279.903394	      0.021692	      0.172308	      0.170617	      0.105793	      0.167652	      0.100849	      0.832590	      0.088953	      0.267000	      0.089785	      0.022715	      0.065511
      0.351484	      0.035217	     -0.242627	     98.308584	    279.801689	      0.021678	      0.172368	      0.173427	      0.105845	      0.170440	      0.100901	      0.838477	      0.088802	      0.281716	      0.089613	      0.022693	      0.065439
